<svg viewBox="0 0 200 220" xmlns="http://www.w3.org/2000/svg" role="img" aria-labelledby="t6 d6">
  <title id="t6">Daiquiri de Fresa</title>
  <desc id="d6">Copa con líquido rosado espeso, tipo frozen, decorada con una fresa</desc>
  <rect width="200" height="220" fill="#FFFBF2"/>
  <path d="M60,45 C60,90 70,110 100,112 C130,110 140,90 140,45 Z" fill="#EDE7D3" stroke="#5C6B4F" stroke-width="3"/>
  <path d="M66,58 C67,90 76,104 100,106 C124,104 133,90 134,58 Z" fill="#E8768F"/>
  <path d="M75,64 Q90,70 78,80 Q96,78 90,90 Q108,80 100,70" fill="#F2A5B6" opacity="0.7"/>
  <rect x="97" y="112" width="6" height="50" fill="#5C6B4F"/>
  <rect x="72" y="162" width="56" height="8" rx="3" fill="#5C6B4F"/>
  <path d="M148,48 C160,48 165,60 158,70 C150,80 138,76 138,64 C138,54 142,48 148,48 Z" fill="#D6273F"/>
  <path d="M142,48 l3,-7 l3,7 l4,-6 l1,7" fill="none" stroke="#4C7A3B" stroke-width="2"/>
  <circle cx="146" cy="58" r="1.3" fill="#F6D9DE"/>
  <circle cx="153" cy="62" r="1.3" fill="#F6D9DE"/>
  <circle cx="148" cy="68" r="1.3" fill="#F6D9DE"/>
</svg>
