<svg xmlns="http://www.w3.org/2000/svg" viewBox="0 0 200 220" width="200" height="220">
  <rect width="200" height="220" fill="#eef2f6"/>
  <circle cx="100" cy="100" r="55" fill="#fff" stroke="#333" stroke-width="2"/>
  <g stroke="#fff" stroke-width="2">
    <path d="M100,45 A55,55 0 0,1 147.6,72.5 L100,100 Z" fill="#e04b3b"/>
    <path d="M147.6,72.5 A55,55 0 0,1 147.6,127.5 L100,100 Z" fill="#f2b632"/>
    <path d="M147.6,127.5 A55,55 0 0,1 100,155 L100,100 Z" fill="#3f9c4c"/>
    <path d="M100,155 A55,55 0 0,1 52.4,127.5 L100,100 Z" fill="#3866c9"/>
    <path d="M52.4,127.5 A55,55 0 0,1 52.4,72.5 L100,100 Z" fill="#8a4fc4"/>
    <path d="M52.4,72.5 A55,55 0 0,1 100,45 L100,100 Z" fill="#e0782d"/>
  </g>
  <circle cx="100" cy="100" r="10" fill="#333"/>
  <rect x="30" y="180" width="45" height="30" rx="3" fill="#f2b632" stroke="#333" stroke-width="1.5"/>
  <text x="52" y="200" font-size="16" text-anchor="middle" fill="#333" font-family="Arial" font-weight="bold">?</text>
  <rect x="125" y="182" width="45" height="30" rx="3" fill="#3866c9" stroke="#333" stroke-width="1.5"/>
  <text x="147" y="202" font-size="16" text-anchor="middle" fill="#fff" font-family="Arial" font-weight="bold">?</text>
</svg>
